# xmcd CD database file
#
# Track frame offsets:
#	150
#	567
#	12618
#	20667
#	27812
#	34608
#	42202
#	49839
#	58299
#	67975
#	78843
#	90356
#
# Disc length: 1334 seconds
#
# Revision: 0
# Processed by: cddbd v1.5.1PL0 Copyright (c) Steve Scherf et al.
# Submitted via: CDex 1.51
#
DISCID=8a05340c
DTITLE=Rigk Sauer - The ukulele solo recipe
DYEAR=2004
DGENRE=Jazz
TTITLE0=Data 
TTITLE1=Harlem Nocturne
TTITLE2=Peter Gunn
TTITLE3=Love me tender
TTITLE4=If I fell
TTITLE5=The girl from Ipanema
TTITLE6=Mr. Sandman
TTITLE7=I'm beginning to see the lights
TTITLE8=St. Louis Blues
TTITLE9=The Entertainer
TTITLE10=Caledonia
TTITLE11=Sweet Home Chicago
EXTD=YEAR: 2004
EXTT0=
EXTT1=
EXTT2=
EXTT3=
EXTT4=
EXTT5=
EXTT6=
EXTT7=
EXTT8=
EXTT9=
EXTT10=
EXTT11=
PLAYORDER=
